<svg version="1.1" id="Layer_1" xmlns="http://www.w3.org/2000/svg" xmlns:xlink="http://www.w3.org/1999/xlink" x="0px" y="0px"
	 width="100%" viewBox="0 0 512 512" enable-background="new 0 0 512 512" xml:space="preserve">
<path fill="#209CEE" opacity="1.000000" stroke="none"
	d="
M0.999996,476.000000
	C1.000000,330.309265 1.000000,184.618515 1.275928,38.804901
	C1.930565,38.360050 2.529874,38.107510 2.656252,37.706081
	C8.179579,20.161907 19.392412,8.292300 37.157158,2.853355
	C37.586964,2.721763 37.725574,1.639082 38.000000,1.000000
	C183.690750,1.000000 329.381500,1.000000 475.195312,1.276349
	C475.640686,1.931239 475.894012,2.531765 476.295166,2.656414
	C493.894073,8.124482 505.589172,19.512814 511.145782,37.156994
	C511.282074,37.589725 512.360840,37.725643 513.000000,38.000000
	C513.000000,183.690750 513.000000,329.381500 512.728271,475.189972
	C512.076660,475.627625 511.473450,475.878021 511.349213,476.277405
	C505.875153,493.876556 494.497223,505.589996 476.842224,511.146057
	C476.409821,511.282135 476.274078,512.360901 476.000000,513.000000
	C330.309265,513.000000 184.618515,513.000000 38.804634,512.723572
	C38.359257,512.068787 38.105190,511.465912 37.704956,511.344391
	C20.010986,505.971588 8.433236,494.464691 2.853950,476.843445
	C2.716738,476.410065 1.639047,476.274475 0.999996,476.000000
M126.782082,254.805161
	C138.651596,291.533142 150.556076,328.249908 162.326202,365.009705
	C163.298569,368.046478 164.633606,369.202667 167.902542,369.085297
	C175.226044,368.822418 182.565475,369.007324 189.898422,369.001862
	C198.154297,368.995697 200.256042,367.484558 202.898682,359.522736
	C209.239380,340.419189 215.689117,321.350494 221.853989,302.190247
	C233.517853,265.939331 245.010925,229.633453 256.603882,193.359650
	C256.707092,193.036728 257.207153,192.840622 256.956848,193.043640
	C263.273010,212.736374 269.565155,232.540894 275.977539,252.306381
	C287.631958,288.229706 299.351196,324.132019 311.059113,360.037994
	C313.637909,367.946686 315.165314,369.000519 323.684418,369.002686
	C331.017365,369.004547 338.355896,368.833984 345.680786,369.076904
	C349.159485,369.192261 350.859955,368.273315 352.012024,364.693817
	C374.897644,293.585602 397.940979,222.528137 420.934082,151.454468
	C421.457550,149.836487 421.768616,148.149765 422.284485,146.068527
	C412.708527,146.068527 403.886993,146.038849 395.065735,146.077347
	C387.148682,146.111877 383.305756,148.817200 381.116211,156.295700
	C364.620636,212.636169 345.731781,268.276550 331.229950,324.977936
	C331.108612,324.680420 330.745239,323.961243 330.515869,323.201599
	C322.968384,298.203156 315.623230,273.141785 307.848999,248.214188
	C298.190216,217.243774 288.189484,186.379929 278.310394,155.478378
	C276.015289,148.299347 272.901703,145.942398 265.680328,145.846802
	C260.848083,145.782837 256.014130,145.803085 251.181320,145.837662
	C243.403900,145.893326 240.482803,148.011261 238.055328,155.452377
	C223.659515,199.580994 209.243698,243.703171 194.924576,287.856659
	C190.920044,300.204742 187.219360,312.651337 183.117401,325.898468
	C182.617676,323.962585 182.308029,322.878448 182.059036,321.780548
	C179.668304,311.239624 177.837067,300.535736 174.809204,290.181580
	C161.780975,245.630005 148.361191,201.193085 135.203995,156.678940
	C133.588165,151.212143 130.694229,146.772232 124.966263,146.476334
	C114.085175,145.914230 103.154411,146.313522 91.626602,146.313522
	C103.363708,182.581833 114.929352,218.320297 126.782082,254.805161
z"/>
<path fill="#000000" opacity="1.000000" stroke="none"
	d="
M513.000000,37.531342
	C512.360840,37.725643 511.282074,37.589725 511.145782,37.156994
	C505.589172,19.512814 493.894073,8.124482 476.295166,2.656414
	C475.894012,2.531765 475.640686,1.931239 475.659210,1.276349
	C488.259949,1.000000 500.519897,1.000000 513.000000,1.000000
	C513.000000,13.020000 513.000000,25.041342 513.000000,37.531342
z"/>
<path fill="#000000" opacity="1.000000" stroke="none"
	d="
M476.468658,513.000000
	C476.274078,512.360901 476.409821,511.282135 476.842224,511.146057
	C494.497223,505.589996 505.875153,493.876556 511.349213,476.277405
	C511.473450,475.878021 512.076660,475.627625 512.728271,475.653870
	C513.000000,488.259949 513.000000,500.519897 513.000000,513.000000
	C500.980011,513.000000 488.958649,513.000000 476.468658,513.000000
z"/>
<path fill="#000000" opacity="1.000000" stroke="none"
	d="
M37.531342,1.000000
	C37.725574,1.639082 37.586964,2.721763 37.157158,2.853355
	C19.392412,8.292300 8.179579,20.161907 2.656252,37.706081
	C2.529874,38.107510 1.930565,38.360050 1.275928,38.341019
	C1.000000,25.740049 1.000000,13.480098 1.000000,1.000000
	C13.020000,1.000000 25.041342,1.000000 37.531342,1.000000
z"/>
<path fill="#000000" opacity="1.000000" stroke="none"
	d="
M0.999996,476.468689
	C1.639047,476.274475 2.716738,476.410065 2.853950,476.843445
	C8.433236,494.464691 20.010986,505.971588 37.704956,511.344391
	C38.105190,511.465912 38.359257,512.068787 38.340748,512.723572
	C25.740049,513.000000 13.480098,513.000000 1.000000,513.000000
	C1.000000,500.980011 1.000000,488.958649 0.999996,476.468689
z"/>
<path fill="#FDFEFF" opacity="1.000000" stroke="none"
	d="
M126.638535,254.431961
	C114.929352,218.320297 103.363708,182.581833 91.626602,146.313522
	C103.154411,146.313522 114.085175,145.914230 124.966263,146.476334
	C130.694229,146.772232 133.588165,151.212143 135.203995,156.678940
	C148.361191,201.193085 161.780975,245.630005 174.809204,290.181580
	C177.837067,300.535736 179.668304,311.239624 182.059036,321.780548
	C182.308029,322.878448 182.617676,323.962585 183.117401,325.898468
	C187.219360,312.651337 190.920044,300.204742 194.924576,287.856659
	C209.243698,243.703171 223.659515,199.580994 238.055328,155.452377
	C240.482803,148.011261 243.403900,145.893326 251.181320,145.837662
	C256.014130,145.803085 260.848083,145.782837 265.680328,145.846802
	C272.901703,145.942398 276.015289,148.299347 278.310394,155.478378
	C288.189484,186.379929 298.190216,217.243774 307.848999,248.214188
	C315.623230,273.141785 322.968384,298.203156 330.515869,323.201599
	C330.745239,323.961243 331.108612,324.680420 331.229950,324.977936
	C345.731781,268.276550 364.620636,212.636169 381.116211,156.295700
	C383.305756,148.817200 387.148682,146.111877 395.065735,146.077347
	C403.886993,146.038849 412.708527,146.068527 422.284485,146.068527
	C421.768616,148.149765 421.457550,149.836487 420.934082,151.454468
	C397.940979,222.528137 374.897644,293.585602 352.012024,364.693817
	C350.859955,368.273315 349.159485,369.192261 345.680786,369.076904
	C338.355896,368.833984 331.017365,369.004547 323.684418,369.002686
	C315.165314,369.000519 313.637909,367.946686 311.059113,360.037994
	C299.351196,324.132019 287.631958,288.229706 275.977539,252.306381
	C269.565155,232.540894 263.273010,212.736374 256.956848,193.043640
	C257.207153,192.840622 256.707092,193.036728 256.603882,193.359650
	C245.010925,229.633453 233.517853,265.939331 221.853989,302.190247
	C215.689117,321.350494 209.239380,340.419189 202.898682,359.522736
	C200.256042,367.484558 198.154297,368.995697 189.898422,369.001862
	C182.565475,369.007324 175.226044,368.822418 167.902542,369.085297
	C164.633606,369.202667 163.298569,368.046478 162.326202,365.009705
	C150.556076,328.249908 138.651596,291.533142 126.638535,254.431961
z"/>
</svg>
