<?xml version="1.0" standalone="no"?>
<!DOCTYPE svg PUBLIC "-//W3C//DTD SVG 20010904//EN"
 "http://www.w3.org/TR/2001/REC-SVG-20010904/DTD/svg10.dtd">
<svg version="1.0" xmlns="http://www.w3.org/2000/svg"
 width="512.000000pt" height="512.000000pt" viewBox="0 0 512.000000 512.000000"
 preserveAspectRatio="xMidYMid meet">
<metadata>
Created by potrace 1.14, written by Peter Selinger 2001-2017
</metadata>
<g transform="translate(0.000000,512.000000) scale(0.100000,-0.100000)"
fill="#000000" stroke="none">
<path d="M415 5110 c-197 -41 -349 -188 -400 -385 -13 -52 -15 -307 -15 -2165
0 -2303 -4 -2154 57 -2280 38 -78 151 -189 233 -228 36 -16 92 -35 124 -41 84
-15 4208 -15 4292 0 97 18 180 64 260 143 76 76 114 142 139 242 14 54 15 300
13 2190 l-3 2129 -23 59 c-30 81 -73 144 -135 203 -63 59 -106 86 -183 116
l-59 22 -2130 1 c-1172 1 -2148 -2 -2170 -6z m885 -1475 c26 -27 52 -106 245
-755 119 -399 229 -787 245 -863 26 -127 40 -175 40 -134 0 26 61 220 275 877
112 344 220 676 240 739 26 80 46 123 65 143 28 28 29 28 159 28 128 0 131 0
161 -27 28 -26 53 -98 279 -808 136 -429 258 -823 271 -875 13 -52 25 -90 26
-85 2 6 15 62 29 125 35 161 471 1589 493 1620 33 45 57 50 225 50 86 0 157
-3 157 -7 1 -5 -160 -506 -357 -1115 l-358 -1108 -166 0 c-144 0 -170 2 -189
18 -16 13 -84 210 -284 824 -145 443 -269 836 -277 872 -7 36 -14 64 -16 62
-2 -2 -15 -48 -28 -102 -14 -55 -139 -443 -279 -864 -215 -645 -258 -768 -281
-788 -26 -22 -32 -22 -188 -20 l-161 3 -358 1105 c-197 608 -358 1109 -358
1113 0 5 81 7 180 5 l180 -3 30 -30z"/>
</g>
</svg>
